<svg width="750" height="150" viewBox="0 0 750 150" fill="none" xmlns="http://www.w3.org/2000/svg">
<path d="M122.239 37.835L103.512 22.0538C101.61 20.4547 98.7722 20.7045 97.1731 22.6063C95.574 24.5081 95.8237 27.346 97.7255 28.9451L107.01 36.8358H62.5332C48.4353 36.8514 37.0098 48.277 36.994 62.3751V70.4499C36.994 72.9328 39.0086 74.9475 41.4915 74.9475C43.9745 74.9475 45.9891 72.9328 45.9891 70.4499V62.2962C46.0049 53.1641 53.401 45.7679 62.5332 45.7521H107.036L97.7519 53.6427C95.8503 55.2418 95.6004 58.08 97.1995 59.9816C98.7986 61.8832 101.637 62.1331 103.538 60.534L122.265 44.7526C124.167 43.1561 124.417 40.3181 122.82 38.4165C122.652 38.2166 122.465 38.0299 122.265 37.8616L122.239 37.835Z" fill="#4899D2"/>
<path d="M110.377 74.9736C107.894 74.9736 105.879 76.9883 105.879 79.4712V87.6249C105.863 96.757 98.4674 104.153 89.3352 104.169H44.8319L54.1165 96.2784C56.2916 95.0765 57.0808 92.341 55.8786 90.1657C54.6767 87.9905 51.9413 87.2014 49.7659 88.4035C49.2662 88.6796 48.8218 89.0479 48.4613 89.4923L29.7342 105.274C27.8326 106.87 27.5826 109.708 29.1792 111.61C29.3475 111.81 29.5342 111.996 29.7342 112.165L48.4613 127.946C50.3629 129.545 53.201 129.295 54.8001 127.394C56.3992 125.492 56.1495 122.654 54.2477 121.055L44.9631 113.164H89.3347C103.433 113.148 114.858 101.723 114.874 87.6247V79.4714C114.875 76.9857 112.86 74.9736 110.377 74.9736Z" fill="#293C7D"/>
<path d="M145.6 58.304C149.152 58.304 152.256 59.008 154.912 60.416C157.568 61.824 159.616 63.808 161.056 66.368C162.528 68.896 163.264 71.824 163.264 75.152C163.264 78.448 162.528 81.376 161.056 83.936C159.616 86.496 157.552 88.48 154.864 89.888C152.208 91.296 149.12 92 145.6 92H132.976V58.304H145.6ZM145.072 84.896C148.176 84.896 150.592 84.048 152.32 82.352C154.048 80.656 154.912 78.256 154.912 75.152C154.912 72.048 154.048 69.632 152.32 67.904C150.592 66.176 148.176 65.312 145.072 65.312H141.184V84.896H145.072ZM166.219 78.56C166.219 75.808 166.731 73.392 167.755 71.312C168.811 69.232 170.235 67.632 172.027 66.512C173.819 65.392 175.819 64.832 178.027 64.832C179.915 64.832 181.563 65.216 182.971 65.984C184.411 66.752 185.515 67.76 186.283 69.008V65.216H194.491V92H186.283V88.208C185.483 89.456 184.363 90.464 182.923 91.232C181.515 92 179.867 92.384 177.979 92.384C175.803 92.384 173.819 91.824 172.027 90.704C170.235 89.552 168.811 87.936 167.755 85.856C166.731 83.744 166.219 81.312 166.219 78.56ZM186.283 78.608C186.283 76.56 185.707 74.944 184.555 73.76C183.435 72.576 182.059 71.984 180.427 71.984C178.795 71.984 177.403 72.576 176.251 73.76C175.131 74.912 174.571 76.512 174.571 78.56C174.571 80.608 175.131 82.24 176.251 83.456C177.403 84.64 178.795 85.232 180.427 85.232C182.059 85.232 183.435 84.64 184.555 83.456C185.707 82.272 186.283 80.656 186.283 78.608ZM215.357 85.04V92H211.181C208.205 92 205.885 91.28 204.221 89.84C202.557 88.368 201.725 85.984 201.725 82.688V72.032H198.461V65.216H201.725V58.688H209.933V65.216H215.309V72.032H209.933V82.784C209.933 83.584 210.125 84.16 210.509 84.512C210.893 84.864 211.533 85.04 212.429 85.04H215.357ZM218.297 78.56C218.297 75.808 218.809 73.392 219.833 71.312C220.889 69.232 222.313 67.632 224.105 66.512C225.897 65.392 227.897 64.832 230.105 64.832C231.993 64.832 233.641 65.216 235.049 65.984C236.489 66.752 237.593 67.76 238.361 69.008V65.216H246.569V92H238.361V88.208C237.561 89.456 236.441 90.464 235.001 91.232C233.593 92 231.945 92.384 230.057 92.384C227.881 92.384 225.897 91.824 224.105 90.704C222.313 89.552 220.889 87.936 219.833 85.856C218.809 83.744 218.297 81.312 218.297 78.56ZM238.361 78.608C238.361 76.56 237.785 74.944 236.633 73.76C235.513 72.576 234.137 71.984 232.505 71.984C230.873 71.984 229.481 72.576 228.329 73.76C227.209 74.912 226.649 76.512 226.649 78.56C226.649 80.608 227.209 82.24 228.329 83.456C229.481 84.64 230.873 85.232 232.505 85.232C234.137 85.232 235.513 84.64 236.633 83.456C237.785 82.272 238.361 80.656 238.361 78.608ZM541.203 69.152C541.203 71.104 540.755 72.896 539.859 74.528C538.963 76.128 537.587 77.424 535.731 78.416C533.875 79.408 531.571 79.904 528.819 79.904H523.731V92H515.523V58.304H528.819C531.507 58.304 533.779 58.768 535.635 59.696C537.491 60.624 538.883 61.904 539.811 63.536C540.739 65.168 541.203 67.04 541.203 69.152ZM528.195 73.376C529.763 73.376 530.931 73.008 531.699 72.272C532.467 71.536 532.851 70.496 532.851 69.152C532.851 67.808 532.467 66.768 531.699 66.032C530.931 65.296 529.763 64.928 528.195 64.928H523.731V73.376H528.195ZM553.684 56.48V92H545.476V56.48H553.684ZM558 78.56C558 75.808 558.512 73.392 559.536 71.312C560.592 69.232 562.016 67.632 563.808 66.512C565.6 65.392 567.6 64.832 569.808 64.832C571.696 64.832 573.344 65.216 574.752 65.984C576.192 66.752 577.296 67.76 578.064 69.008V65.216H586.272V92H578.064V88.208C577.264 89.456 576.144 90.464 574.704 91.232C573.296 92 571.648 92.384 569.76 92.384C567.584 92.384 565.6 91.824 563.808 90.704C562.016 89.552 560.592 87.936 559.536 85.856C558.512 83.744 558 81.312 558 78.56ZM578.064 78.608C578.064 76.56 577.488 74.944 576.336 73.76C575.216 72.576 573.84 71.984 572.208 71.984C570.576 71.984 569.184 72.576 568.032 73.76C566.912 74.912 566.352 76.512 566.352 78.56C566.352 80.608 566.912 82.24 568.032 83.456C569.184 84.64 570.576 85.232 572.208 85.232C573.84 85.232 575.216 84.64 576.336 83.456C577.488 82.272 578.064 80.656 578.064 78.608ZM607.138 85.04V92H602.962C599.986 92 597.666 91.28 596.002 89.84C594.338 88.368 593.506 85.984 593.506 82.688V72.032H590.242V65.216H593.506V58.688H601.714V65.216H607.09V72.032H601.714V82.784C601.714 83.584 601.906 84.16 602.29 84.512C602.674 84.864 603.314 85.04 604.21 85.04H607.138ZM625.15 72.032H620.734V92H612.526V72.032H609.55V65.216H612.526V64.448C612.526 61.152 613.47 58.656 615.358 56.96C617.246 55.232 620.014 54.368 623.662 54.368C624.27 54.368 624.718 54.384 625.006 54.416V61.376C623.438 61.28 622.334 61.504 621.694 62.048C621.054 62.592 620.734 63.568 620.734 64.976V65.216H625.15V72.032ZM641.199 92.384C638.575 92.384 636.207 91.824 634.095 90.704C632.015 89.584 630.367 87.984 629.151 85.904C627.967 83.824 627.375 81.392 627.375 78.608C627.375 75.856 627.983 73.44 629.199 71.36C630.415 69.248 632.079 67.632 634.191 66.512C636.303 65.392 638.671 64.832 641.295 64.832C643.919 64.832 646.287 65.392 648.399 66.512C650.511 67.632 652.175 69.248 653.391 71.36C654.607 73.44 655.215 75.856 655.215 78.608C655.215 81.36 654.591 83.792 653.343 85.904C652.127 87.984 650.447 89.584 648.303 90.704C646.191 91.824 643.823 92.384 641.199 92.384ZM641.199 85.28C642.767 85.28 644.095 84.704 645.183 83.552C646.303 82.4 646.863 80.752 646.863 78.608C646.863 76.464 646.319 74.816 645.231 73.664C644.175 72.512 642.863 71.936 641.295 71.936C639.695 71.936 638.367 72.512 637.311 73.664C636.255 74.784 635.727 76.432 635.727 78.608C635.727 80.752 636.239 82.4 637.263 83.552C638.319 84.704 639.631 85.28 641.199 85.28ZM667.778 69.68C668.738 68.208 669.938 67.056 671.378 66.224C672.818 65.36 674.418 64.928 676.178 64.928V73.616H673.922C671.874 73.616 670.338 74.064 669.314 74.96C668.29 75.824 667.778 77.36 667.778 79.568V92H659.57V65.216H667.778V69.68ZM714.277 64.928C717.605 64.928 720.245 65.936 722.197 67.952C724.181 69.968 725.173 72.768 725.173 76.352V92H717.013V77.456C717.013 75.728 716.549 74.4 715.621 73.472C714.725 72.512 713.477 72.032 711.877 72.032C710.277 72.032 709.013 72.512 708.085 73.472C707.189 74.4 706.741 75.728 706.741 77.456V92H698.581V77.456C698.581 75.728 698.117 74.4 697.189 73.472C696.293 72.512 695.045 72.032 693.445 72.032C691.845 72.032 690.581 72.512 689.653 73.472C688.757 74.4 688.309 75.728 688.309 77.456V92H680.101V65.216H688.309V68.576C689.141 67.456 690.229 66.576 691.573 65.936C692.917 65.264 694.437 64.928 696.133 64.928C698.149 64.928 699.941 65.36 701.509 66.224C703.109 67.088 704.357 68.32 705.253 69.92C706.181 68.448 707.445 67.248 709.045 66.32C710.645 65.392 712.389 64.928 714.277 64.928Z" fill="#293C7D"/>
<path d="M270.887 64.88V71.696H281.879V78.032H270.887V85.424H283.319V92H262.679V58.304H283.319V64.88H270.887ZM304.488 92L299.352 84.56L295.032 92H286.152L294.984 78.32L285.912 65.216H295.128L300.264 72.608L304.584 65.216H313.464L304.488 78.704L313.704 92H304.488ZM315.235 78.608C315.235 75.824 315.795 73.392 316.915 71.312C318.067 69.232 319.651 67.632 321.667 66.512C323.715 65.392 326.051 64.832 328.675 64.832C332.035 64.832 334.835 65.712 337.075 67.472C339.347 69.232 340.835 71.712 341.539 74.912H332.803C332.067 72.864 330.643 71.84 328.531 71.84C327.027 71.84 325.827 72.432 324.931 73.616C324.035 74.768 323.587 76.432 323.587 78.608C323.587 80.784 324.035 82.464 324.931 83.648C325.827 84.8 327.027 85.376 328.531 85.376C330.643 85.376 332.067 84.352 332.803 82.304H341.539C340.835 85.44 339.347 87.904 337.075 89.696C334.803 91.488 332.003 92.384 328.675 92.384C326.051 92.384 323.715 91.824 321.667 90.704C319.651 89.584 318.067 87.984 316.915 85.904C315.795 83.824 315.235 81.392 315.235 78.608ZM362.393 64.928C365.465 64.928 367.929 65.952 369.785 68C371.641 70.016 372.569 72.8 372.569 76.352V92H364.409V77.456C364.409 75.664 363.945 74.272 363.017 73.28C362.089 72.288 360.841 71.792 359.273 71.792C357.705 71.792 356.457 72.288 355.529 73.28C354.601 74.272 354.137 75.664 354.137 77.456V92H345.929V56.48H354.137V68.816C354.969 67.632 356.105 66.688 357.545 65.984C358.985 65.28 360.601 64.928 362.393 64.928ZM376.641 78.56C376.641 75.808 377.153 73.392 378.177 71.312C379.233 69.232 380.657 67.632 382.449 66.512C384.241 65.392 386.241 64.832 388.449 64.832C390.337 64.832 391.985 65.216 393.393 65.984C394.833 66.752 395.937 67.76 396.705 69.008V65.216H404.913V92H396.705V88.208C395.905 89.456 394.785 90.464 393.345 91.232C391.937 92 390.289 92.384 388.401 92.384C386.225 92.384 384.241 91.824 382.449 90.704C380.657 89.552 379.233 87.936 378.177 85.856C377.153 83.744 376.641 81.312 376.641 78.56ZM396.705 78.608C396.705 76.56 396.129 74.944 394.977 73.76C393.857 72.576 392.481 71.984 390.849 71.984C389.217 71.984 387.825 72.576 386.673 73.76C385.553 74.912 384.993 76.512 384.993 78.56C384.993 80.608 385.553 82.24 386.673 83.456C387.825 84.64 389.217 85.232 390.849 85.232C392.481 85.232 393.857 84.64 394.977 83.456C396.129 82.272 396.705 80.656 396.705 78.608ZM427.171 64.928C430.307 64.928 432.803 65.952 434.659 68C436.547 70.016 437.491 72.8 437.491 76.352V92H429.331V77.456C429.331 75.664 428.867 74.272 427.939 73.28C427.011 72.288 425.763 71.792 424.195 71.792C422.627 71.792 421.379 72.288 420.451 73.28C419.523 74.272 419.059 75.664 419.059 77.456V92H410.851V65.216H419.059V68.768C419.891 67.584 421.011 66.656 422.419 65.984C423.827 65.28 425.411 64.928 427.171 64.928ZM453.371 64.832C455.259 64.832 456.907 65.216 458.315 65.984C459.755 66.752 460.859 67.76 461.627 69.008V65.216H469.835V91.952C469.835 94.416 469.339 96.64 468.347 98.624C467.387 100.64 465.899 102.24 463.883 103.424C461.899 104.608 459.419 105.2 456.443 105.2C452.475 105.2 449.259 104.256 446.795 102.368C444.331 100.512 442.923 97.984 442.571 94.784H450.683C450.939 95.808 451.547 96.608 452.507 97.184C453.467 97.792 454.651 98.096 456.059 98.096C457.755 98.096 459.099 97.6 460.091 96.608C461.115 95.648 461.627 94.096 461.627 91.952V88.16C460.827 89.408 459.723 90.432 458.315 91.232C456.907 92 455.259 92.384 453.371 92.384C451.163 92.384 449.163 91.824 447.371 90.704C445.579 89.552 444.155 87.936 443.099 85.856C442.075 83.744 441.563 81.312 441.563 78.56C441.563 75.808 442.075 73.392 443.099 71.312C444.155 69.232 445.579 67.632 447.371 66.512C449.163 65.392 451.163 64.832 453.371 64.832ZM461.627 78.608C461.627 76.56 461.051 74.944 459.899 73.76C458.779 72.576 457.403 71.984 455.771 71.984C454.139 71.984 452.747 72.576 451.595 73.76C450.475 74.912 449.915 76.512 449.915 78.56C449.915 80.608 450.475 82.24 451.595 83.456C452.747 84.64 454.139 85.232 455.771 85.232C457.403 85.232 458.779 84.64 459.899 83.456C461.051 82.272 461.627 80.656 461.627 78.608ZM501.021 78.176C501.021 78.944 500.973 79.744 500.877 80.576H482.301C482.429 82.24 482.957 83.52 483.885 84.416C484.845 85.28 486.013 85.712 487.389 85.712C489.437 85.712 490.861 84.848 491.661 83.12H500.397C499.949 84.88 499.133 86.464 497.949 87.872C496.797 89.28 495.341 90.384 493.581 91.184C491.821 91.984 489.853 92.384 487.677 92.384C485.053 92.384 482.717 91.824 480.669 90.704C478.621 89.584 477.021 87.984 475.869 85.904C474.717 83.824 474.141 81.392 474.141 78.608C474.141 75.824 474.701 73.392 475.821 71.312C476.973 69.232 478.573 67.632 480.621 66.512C482.669 65.392 485.021 64.832 487.677 64.832C490.269 64.832 492.573 65.376 494.589 66.464C496.605 67.552 498.173 69.104 499.293 71.12C500.445 73.136 501.021 75.488 501.021 78.176ZM492.621 76.016C492.621 74.608 492.141 73.488 491.181 72.656C490.221 71.824 489.021 71.408 487.581 71.408C486.205 71.408 485.037 71.808 484.077 72.608C483.149 73.408 482.573 74.544 482.349 76.016H492.621Z" fill="#4899D2"/>
</svg>
