<svg width="750" height="750" viewBox="0 0 750 750" fill="none" xmlns="http://www.w3.org/2000/svg">
<path d="M689.88 121.643L562.352 14.1763C549.403 3.28668 530.075 4.98741 519.186 17.9383C508.296 30.8891 509.997 50.2148 522.948 61.1044L586.174 114.838H283.295C187.292 114.945 109.486 192.75 109.378 288.755V343.743C109.378 360.652 123.098 374.371 140.006 374.371C156.914 374.371 170.633 360.652 170.633 343.743V288.218C170.741 226.031 221.107 175.664 283.295 175.556H586.353L523.127 229.29C510.178 240.18 508.476 259.507 519.365 272.456C530.255 285.406 549.582 287.108 562.532 276.218L690.059 168.75C703.009 157.878 704.711 138.552 693.838 125.603C692.692 124.241 691.421 122.97 690.059 121.824L689.88 121.643Z" fill="#4899D2"/>
<path d="M609.101 374.549C592.193 374.549 578.473 388.268 578.473 405.177V460.702C578.365 522.889 528 573.256 465.811 573.364H162.753L225.979 519.63C240.792 511.445 246.165 492.818 237.979 478.004C229.794 463.191 211.167 457.818 196.353 466.004C192.95 467.884 189.923 470.392 187.468 473.419L59.9408 580.887C46.9914 591.759 45.2892 611.085 56.1615 624.034C57.3078 625.396 58.579 626.667 59.9408 627.813L187.468 735.28C200.418 746.169 219.745 744.469 230.635 731.518C241.524 718.567 239.823 699.241 226.873 688.352L163.647 634.618H465.808C561.812 634.51 639.619 556.704 639.725 460.7V405.178C639.73 388.251 626.009 374.549 609.101 374.549Z" fill="#293C7D"/>
<path d="M291.902 299.58C307.442 299.58 321.022 302.66 332.642 308.82C344.262 314.98 353.222 323.66 359.522 334.86C365.962 345.92 369.182 358.73 369.182 373.29C369.182 387.71 365.962 400.52 359.522 411.72C353.222 422.92 344.192 431.6 332.432 437.76C320.812 443.92 307.302 447 291.902 447H236.672V299.58H291.902ZM289.592 415.92C303.172 415.92 313.742 412.21 321.302 404.79C328.862 397.37 332.642 386.87 332.642 373.29C332.642 359.71 328.862 349.14 321.302 341.58C313.742 334.02 303.172 330.24 289.592 330.24H272.582V415.92H289.592Z" fill="#293C7D"/>
<path d="M479.55 447L449.52 401.85L423.06 447H382.32L429.57 372.03L381.27 299.58H423.06L452.67 344.1L478.71 299.58H519.45L472.62 373.92L521.34 447H479.55Z" fill="#4899D2"/>
</svg>
